<?xml version="1.0" encoding="UTF-8"?>
<svg width="25px" height="30px" viewBox="0 0 25 30" version="1.1" xmlns="http://www.w3.org/2000/svg" xmlns:xlink="http://www.w3.org/1999/xlink">
    <!-- Generator: Sketch 49.3 (51167) - http://www.bohemiancoding.com/sketch -->
    <title>Fill 286</title>
    <desc>Created with Sketch.</desc>
    <defs></defs>
    <g id="Page-1" stroke="none" stroke-width="1" fill="none" fill-rule="evenodd">
        <g id="Homepage" transform="translate(-933.000000, -2127.000000)" fill="#347BD9">
            <g id="Products" transform="translate(0.000000, 1763.000000)">
                <g id="Fill-286" transform="translate(933.000000, 364.000000)">
                    <path d="M14.6593478,17.3117077 C14.306087,17.3117077 14.0191304,17.0675538 14.0191304,16.7680154 C14.0191304,16.7223231 14.0142391,16.6761692 14.0044565,16.6327846 L14.0044565,16.4795538 L15.3142391,16.4795538 L15.3142391,16.6286308 C15.303913,16.6734 15.2995652,16.7204769 15.2995652,16.7680154 C15.2995652,17.0675538 15.0115217,17.3117077 14.6593478,17.3117077 Z M11.956087,15.5564769 C11.0408696,15.4475538 10.1723913,14.9850923 9.60934783,14.3398615 L19.7088043,14.3398615 C19.1463043,14.9850923 18.2778261,15.4475538 17.3626087,15.5564769 L11.956087,15.5564769 Z M19.4283696,20.7649385 L16.6017391,20.7649385 C16.3017391,20.7649385 16.0582609,20.9717077 16.0582609,21.2264769 C16.0582609,21.4817077 16.3017391,21.6880154 16.6017391,21.6880154 L19.4283696,21.6880154 C21.7647826,21.6880154 23.6653261,23.3864769 23.6653261,25.4735538 C23.6653261,27.4572462 21.7647826,29.0717077 19.4283696,29.0717077 L19.4278261,29.0717077 C17.0925,29.0717077 15.191413,27.4572462 15.191413,25.4735538 L15.191413,18.7946308 C16.155,18.6123231 16.9088043,17.9518615 17.0756522,17.1187846 C19.328913,17.0684769 21.4370652,15.6432462 22.0115217,13.7638615 C22.0126087,13.7610923 22.0120652,13.7583231 22.0131522,13.7546308 C22.0495652,13.6410923 22.08,13.5210923 22.1022826,13.4057077 L23.7392391,4.93832308 C23.9403261,3.89478462 23.6348913,2.90386154 22.8783696,2.14693846 C22.1218478,1.3914 21.0207609,0.975092308 19.7761957,0.975092308 C19.2761957,0.975092308 18.8707609,1.3194 18.8707609,1.74401538 C18.8707609,2.16909231 19.2761957,2.5134 19.7761957,2.5134 C20.48,2.5134 21.091413,2.73724615 21.4979348,3.14293846 C21.9044565,3.55047692 22.0658696,4.09924615 21.9517391,4.68955385 L20.3832609,12.8010923 L8.93543478,12.8010923 L7.36695652,4.68955385 C7.25282609,4.09924615 7.41369565,3.55047692 7.82076087,3.14386154 C8.22673913,2.73724615 8.83815217,2.5134 9.5425,2.5134 C10.0425,2.5134 10.4479348,2.16909231 10.4479348,1.74401538 C10.4479348,1.3194 10.0425,0.975092308 9.5425,0.975092308 C8.29793478,0.975092308 7.19630435,1.3914 6.43978261,2.14786154 C5.68326087,2.90386154 5.37782609,3.89570769 5.57945652,4.93924615 L7.21641304,13.4038615 C7.23815217,13.5201692 7.26967391,13.6401692 7.305,13.7537077 C7.30608696,13.7574 7.30554348,13.7610923 7.30663043,13.7638615 C7.88217391,15.6432462 9.99032609,17.0684769 12.2430435,17.1187846 C12.4077174,17.9454 13.1522826,18.6007846 14.1044565,18.7890923 L14.1044565,25.4735538 C14.1044565,27.9667846 16.4930435,29.9947846 19.4278261,29.9947846 L19.4283696,29.9947846 C22.3642391,29.9947846 24.7522826,27.9667846 24.7522826,25.4735538 C24.7522826,22.8774 22.3642391,20.7649385 19.4283696,20.7649385 Z"></path>
                    <path d="M5.33423913,22.5004154 L4.29184783,23.4064154 L4.29184783,20.6828769 C4.29184783,20.4290308 4.04836957,20.2218 3.74836957,20.2218 C3.44836957,20.2218 3.2048913,20.4290308 3.2048913,20.6828769 L3.2048913,23.8310308 L2.17336957,23.8310308 L2.17336957,18.5431846 L3.2048913,18.5431846 L3.2048913,19.3758 C3.2048913,19.6301077 3.44836957,19.8373385 3.74836957,19.8373385 C4.04836957,19.8373385 4.29184783,19.6301077 4.29184783,19.3758 L4.29184783,18.9687231 L5.33423913,19.8747231 L5.33423913,22.5004154 Z M12.7021739,20.7650308 L7.14565217,20.7650308 L7.14565217,19.8747231 C7.14565217,19.4722615 6.96032609,19.0868769 6.6298913,18.7988769 L5.09565217,17.4668769 C4.74836957,17.1636462 4.27880435,17.0034923 3.8,17.0034923 C3.76793478,17.0034923 3.73586957,17.0034923 3.70434783,17.0053385 L2.17336957,17.0053385 C1.17336957,17.0053385 0.3625,17.6939538 0.3625,18.5431846 L0.3625,23.8310308 C0.3625,24.6802615 1.17336957,25.3688769 2.17336957,25.3688769 L3.725,25.3688769 C3.75054348,25.3698 3.77608696,25.3707231 3.80163043,25.3707231 C4.27934783,25.3707231 4.74836957,25.2101077 5.09565217,24.9082615 L6.6298913,23.5758 C6.96032609,23.2882615 7.14565217,22.9024154 7.14565217,22.5004154 L7.14565217,21.6881077 L12.7021739,21.6881077 C13.0021739,21.6881077 13.2456522,21.4818 13.2456522,21.2265692 C13.2456522,20.9713385 13.0021739,20.7650308 12.7021739,20.7650308 Z" id="Fill-287"></path>
                    <path d="M12.0379891,3.03378462 C12.5385326,3.03378462 12.9439674,2.68947692 12.9439674,2.26393846 L12.9439674,1.22547692 C12.9439674,0.799938462 12.5385326,0.456553846 12.0379891,0.456553846 C11.5379891,0.456553846 11.1325543,0.799938462 11.1325543,1.22547692 L11.1325543,2.26393846 C11.1325543,2.68947692 11.5379891,3.03378462 12.0379891,3.03378462" id="Fill-288"></path>
                    <path d="M17.3342391,3.03378462 C17.8347826,3.03378462 18.2402174,2.68947692 18.2402174,2.26393846 L18.2402174,1.22547692 C18.2402174,0.799938462 17.8347826,0.456553846 17.3342391,0.456553846 C16.8336957,0.456553846 16.4282609,0.799938462 16.4282609,1.22547692 L16.4282609,2.26393846 C16.4282609,2.68947692 16.8336957,3.03378462 17.3342391,3.03378462" id="Fill-289"></path>
                </g>
            </g>
        </g>
    </g>
</svg>