<?xml version="1.0" encoding="UTF-8"?>
<svg width="25px" height="24px" viewBox="0 0 25 24" version="1.1" xmlns="http://www.w3.org/2000/svg" xmlns:xlink="http://www.w3.org/1999/xlink">
    <!-- Generator: Sketch 49.3 (51167) - http://www.bohemiancoding.com/sketch -->
    <title>Fill 198</title>
    <desc>Created with Sketch.</desc>
    <defs></defs>
    <g id="Page-1" stroke="none" stroke-width="1" fill="none" fill-rule="evenodd">
        <g id="Homepage" transform="translate(-573.000000, -2287.000000)" fill="#347BD9">
            <g id="Products" transform="translate(0.000000, 1763.000000)">
                <g id="Fill-198" transform="translate(573.000000, 524.000000)">
                    <path d="M23.0074615,22.0705477 C22.7774615,22.2913477 22.4770769,22.4013785 22.1766923,22.4013785 C22.0224615,22.4013785 21.8686154,22.3711015 21.7243846,22.3135015 L22.2786154,21.7807015 C22.429,21.6363323 22.429,21.4026092 22.2786154,21.2586092 C22.1286154,21.1149785 21.8851538,21.1149785 21.7347692,21.2586092 L21.1324615,21.8375631 L15.1774615,15.3269169 L15.9820769,14.5541169 L22.7647692,20.2705477 L22.6432308,20.3872246 C22.4936154,20.5315938 22.4936154,20.7653169 22.6432308,20.9093169 C22.7182308,20.9816862 22.8166923,21.0175015 22.9151538,21.0175015 C23.0136154,21.0175015 23.1116923,20.9816862 23.1870769,20.9093169 L23.2605385,20.8387938 C23.4378462,21.2482708 23.3543846,21.73824 23.0074615,22.0705477 Z M5.58861538,7.60556308 C5.584,7.60113231 5.58246154,7.59559385 5.57861538,7.59116308 L4.34592308,6.40851692 C4.19592308,6.26414769 3.95246154,6.26414769 3.80207692,6.40851692 C3.65284615,6.55288615 3.65284615,6.78624 3.80207692,6.93060923 L4.65246154,7.74697846 L3.61592308,8.74279385 C3.29130769,9.05442462 2.87669231,9.21393231 2.48630769,9.21393231 C2.16669231,9.21393231 1.864,9.10796308 1.63707692,8.89085538 C1.13323077,8.40605538 1.20169231,7.55645538 1.79053846,6.99042462 L3.36284615,5.48248615 L2.96746154,5.10402462 L5.33323077,2.83288615 L5.72746154,3.21171692 L7.29823077,1.70304 C7.62361538,1.39140923 8.03823077,1.23153231 8.429,1.23153231 C8.74746154,1.23153231 9.05092308,1.33824 9.27784615,1.55571692 C9.78169231,2.03904 9.71284615,2.88937846 9.12361538,3.45540923 L8.08323077,4.45417846 L7.25323077,3.65664 C7.10284615,3.51227077 6.85976923,3.51227077 6.70938462,3.65590154 C6.559,3.80027077 6.559,4.03362462 6.70861538,4.17873231 L7.93246154,5.35510154 L5.58861538,7.60556308 Z M23.914,19.6055631 C23.8947692,19.5867323 23.8743846,19.5690092 23.8532308,19.5509169 L16.8282308,13.6295631 C16.5855385,13.4253785 16.2832308,13.32384 15.9828462,13.32384 C15.6793846,13.32384 15.379,13.4312862 15.1378462,13.6351015 L8.27784615,7.05024 C8.22515385,7.00002462 8.16515385,6.96236308 8.10130769,6.93282462 L8.85323077,6.21171692 C9.16361538,5.91374769 9.28130769,5.50131692 9.20707692,5.11620923 L10.0305385,4.32494769 C10.5305385,3.84420923 10.8355385,3.22020923 10.8882308,2.56999385 C10.9463077,1.85664 10.6893846,1.17024 10.1828462,0.684701538 C9.724,0.244209231 9.10130769,0.00125538462 8.429,0.00125538462 C7.68592308,0.00125538462 6.94284615,0.304763077 6.39246154,0.832393846 L5.569,1.62365538 C5.49092308,1.60999385 5.41207692,1.60260923 5.33323077,1.60260923 C5.00476923,1.60260923 4.67746154,1.72260923 4.42630769,1.96334769 L3.70323077,2.65860923 L3.57476923,2.53454769 C3.32438462,2.29417846 2.91784615,2.29417846 2.66784615,2.53454769 C2.41784615,2.77454769 2.41784615,3.16408615 2.66784615,3.40408615 L2.79707692,3.52814769 L2.06169231,4.23411692 C1.82130769,4.46488615 1.68592308,4.77799385 1.68592308,5.10476308 C1.68592308,5.18119385 1.69361538,5.25614769 1.70784615,5.33036308 L0.884384615,6.12014769 C-0.202538462,7.16580923 -0.271384615,8.79780923 0.731307692,9.76039385 C1.19092308,10.2016246 1.81361538,10.4442092 2.48630769,10.4442092 C3.229,10.4442092 3.97130769,10.1410708 4.52169231,9.61344 L5.34592308,8.82217846 C5.42323077,8.83584 5.50207692,8.84322462 5.58092308,8.84322462 C5.90938462,8.84322462 6.23746154,8.72285538 6.48784615,8.48248615 L7.24938462,7.75067077 C7.28015385,7.81196308 7.31938462,7.86956308 7.37207692,7.92014769 L14.2305385,14.5042708 C13.7963077,14.9650708 13.7828462,15.6666092 14.214,16.1392246 L20.3828462,22.8824862 C20.4009231,22.9027938 20.4193846,22.9223631 20.439,22.9400862 C20.9032308,23.3864862 21.5201538,23.6320246 22.1766923,23.6320246 C22.8324615,23.6320246 23.449,23.3864862 23.9132308,22.9408246 C24.3778462,22.4951631 24.6332308,21.9032862 24.6332308,21.2730092 C24.6332308,20.6434708 24.3778462,20.0504862 23.914,19.6055631 Z"></path>
                </g>
            </g>
        </g>
    </g>
</svg>