<svg xmlns="http://www.w3.org/2000/svg" width="65" height="55" viewBox="0 0 65 55">
    <g fill="#347BD9" fill-rule="evenodd">
        <path d="M56.63 29.464C50.044 38.91 32.584 51.25 32.584 51.25S15.123 38.91 8.538 29.464c-2.431-3.49-4.605-6.805-4.605-11.385 0-7.91 6.413-14.326 14.325-14.326 5.847 0 10.867 3.51 13.093 8.53v-.022h.007c.165.523.648.904 1.226.904s1.06-.381 1.226-.904h.017c2.23-5.01 7.242-8.508 13.082-8.508 7.91 0 14.325 6.416 14.325 14.326 0 4.58-2.174 7.895-4.604 11.385M46.909.404a17.69 17.69 0 0 0-14.325 7.337A17.685 17.685 0 0 0 18.258.405C8.512.405.584 8.333.584 18.079c0 5.824 2.886 9.969 5.206 13.299 6.84 9.816 24.128 22.092 24.86 22.607a3.335 3.335 0 0 0 3.867 0c.732-.515 18.019-12.791 24.86-22.607 2.319-3.33 5.206-7.475 5.206-13.3 0-9.745-7.928-17.673-17.674-17.673"/>
        <path d="M55.337 25.62h-6.768c-.421 0-.8.264-.943.662l-1.685 4.63-3.411-10.187a1.007 1.007 0 0 0-.935-.685.98.98 0 0 0-.96.652l-3.142 8.356L36.2 26.01a1.004 1.004 0 0 0-.924-.612h-6.077c-.426 0-.805.27-.947.67l-1.696 4.803-3.396-10.145a1.006 1.006 0 0 0-.935-.685.994.994 0 0 0-.96.652l-3.142 8.356-1.29-3.039a1.008 1.008 0 0 0-.926-.612H9.829a1.005 1.005 0 1 0 0 2.01h5.414l2.01 4.734c.163.38.53.608.948.614.41-.01.774-.268.92-.653l3.03-8.056 3.426 10.232c.136.406.516.682.945.686h.008c.426 0 .806-.268.947-.67l2.433-6.887h4.7l2.014 4.734c.162.38.553.608.947.614.41-.01.776-.268.92-.653l3.032-8.056 3.423 10.232c.137.405.514.68.942.686h.01c.423 0 .802-.264.947-.662l2.428-6.672h6.064a1.005 1.005 0 0 0 0-2.01"/>
    </g>
</svg>
