<?xml version="1.0" encoding="UTF-8"?>
<svg width="25px" height="24px" viewBox="0 0 25 24" version="1.1" xmlns="http://www.w3.org/2000/svg" xmlns:xlink="http://www.w3.org/1999/xlink">
    <!-- Generator: Sketch 49.3 (51167) - http://www.bohemiancoding.com/sketch -->
    <title>Icon_31_1</title>
    <desc>Created with Sketch.</desc>
    <defs></defs>
    <g id="Page-1" stroke="none" stroke-width="1" fill="none" fill-rule="evenodd">
        <g id="Homepage" transform="translate(-214.000000, -2207.000000)" fill="#347BD9">
            <g id="Products" transform="translate(0.000000, 1763.000000)">
                <g id="Fill-183" transform="translate(214.000000, 444.000000)">
                    <path d="M17.6506154,19.3289625 L10.1383077,12.0055875 L10.9029231,11.2597125 L13.301,13.5978375 L13.0083077,13.8839625 C12.8598462,14.0283375 12.8598462,14.2619625 13.0083077,14.4063375 C13.0817692,14.4779625 13.1786923,14.5147125 13.2756154,14.5147125 C13.3725385,14.5147125 13.4694615,14.4779625 13.5429231,14.4063375 L15.0221538,12.9633375 C15.1702308,12.8193375 15.1702308,12.5857125 15.0221538,12.4413375 C14.8740769,12.2977125 14.6344615,12.2977125 14.4871538,12.4413375 L14.1936923,12.7274625 L11.7952308,10.3897125 L12.5598462,9.6442125 L20.071,16.9683375 L17.6506154,19.3289625 Z M10.9683077,8.0928375 L12.0244615,9.1218375 L9.60292308,11.4832125 L8.54676923,10.4534625 L10.9683077,8.0928375 Z M7.546,9.4777125 L9.96753846,7.1167125 L10.4329231,7.5708375 L8.011,9.9310875 L7.546,9.4777125 Z M2.051,4.4812125 C1.29638462,3.7450875 1.30023077,2.5432125 2.05984615,1.8029625 C2.42984615,1.4418375 2.92061538,1.2430875 3.44176923,1.2430875 C3.95830769,1.2430875 4.44330769,1.4388375 4.80715385,1.7939625 C5.17253846,2.1498375 5.37330769,2.6245875 5.37215385,3.1300875 C5.371,3.6367125 5.16676923,4.1137125 4.79869231,4.4725875 C4.42907692,4.8329625 3.93830769,5.0313375 3.41715385,5.0313375 C2.90023077,5.0313375 2.41523077,4.8367125 2.051,4.4812125 Z M24.7290769,23.3485875 L20.0213846,18.7578375 L20.9633077,17.8383375 C21.4563846,17.3579625 21.4563846,16.5787125 20.9633077,16.0983375 L11.861,7.2220875 L11.8871538,7.1962125 C12.0352308,7.0522125 12.0352308,6.8185875 11.8871538,6.6742125 C11.7390769,6.5305875 11.4994615,6.5305875 11.3521538,6.6742125 L11.3252308,6.7004625 L10.8602308,6.2463375 C10.8563846,6.2429625 10.8517692,6.2399625 10.8475385,6.2362125 L11.4444615,5.6545875 C11.6906154,5.4145875 11.6906154,5.0245875 11.4444615,4.7845875 C11.1975385,4.5442125 10.7983077,4.5442125 10.5521538,4.7845875 L8.29907692,6.9809625 L6.10715385,4.8438375 C6.44792308,4.3390875 6.63253846,3.7495875 6.63407692,3.1330875 C6.63638462,2.2979625 6.30407692,1.5134625 5.69984615,0.9239625 C5.09753846,0.3367125 4.29561538,0.0127125 3.44176923,0.0127125 C2.58330769,0.0127125 1.77561538,0.3393375 1.16753846,0.9325875 C0.561384615,1.5232125 0.226769231,2.3080875 0.224461538,3.1424625 C0.222538462,3.9772125 0.554076923,4.7617125 1.15907692,5.3515875 C1.76138462,5.9388375 2.56330769,6.2624625 3.41715385,6.2624625 C4.06984615,6.2624625 4.69292308,6.0719625 5.22176923,5.7205875 L7.40676923,7.8513375 L5.15369231,10.0477125 C4.90753846,10.2880875 4.90753846,10.6777125 5.15369231,10.9177125 C5.27715385,11.0380875 5.43869231,11.0980875 5.60023077,11.0980875 C5.76138462,11.0980875 5.92292308,11.0380875 6.04638462,10.9177125 L6.64292308,10.3357125 C6.64715385,10.3398375 6.64946154,10.3443375 6.65369231,10.3480875 L7.11869231,10.8014625 L7.07715385,10.8415875 C6.92984615,10.9859625 6.92984615,11.2195875 7.07715385,11.3639625 C7.15138462,11.4355875 7.24830769,11.4723375 7.34523077,11.4723375 C7.44215385,11.4723375 7.53907692,11.4355875 7.61292308,11.3639625 L7.65407692,11.3234625 L16.7583077,20.1989625 C16.9948462,20.4307125 17.3156154,20.5600875 17.6506154,20.5600875 C17.9848462,20.5600875 18.3063846,20.4299625 18.5429231,20.1989625 L19.4856154,19.2798375 L24.1936923,23.8698375 C24.2671538,23.9425875 24.3640769,23.9782125 24.461,23.9782125 C24.5579231,23.9782125 24.6548462,23.9425875 24.7290769,23.8698375 C24.8763846,23.7265875 24.8763846,23.4929625 24.7290769,23.3485875 Z"></path>
                </g>
            </g>
        </g>
    </g>
</svg>