<?xml version="1.0" encoding="UTF-8"?>
<svg width="25px" height="24px" viewBox="0 0 25 24" version="1.1" xmlns="http://www.w3.org/2000/svg" xmlns:xlink="http://www.w3.org/1999/xlink">
    <!-- Generator: Sketch 49.3 (51167) - http://www.bohemiancoding.com/sketch -->
    <title>Icon_57_2</title>
    <desc>Created with Sketch.</desc>
    <defs></defs>
    <g id="Page-1" stroke="none" stroke-width="1" fill="none" fill-rule="evenodd">
        <g id="Homepage" transform="translate(-933.000000, -2207.000000)" fill="#347BD9">
            <g id="Products" transform="translate(0.000000, 1763.000000)">
                <g id="Fill-311" transform="translate(933.000000, 444.000000)">
                    <path d="M12.4822283,8.07581538 L10.0838587,5.3952 C10.3740761,4.68332308 11.33875,4.16492308 12.4670109,4.16492308 C13.6115761,4.16492308 14.5816848,4.6944 14.8594022,5.4192 L12.4822283,8.07581538 Z M20.0958152,22.6157538 L6.20016304,6.21673846 C6.08711957,6.08972308 6.03603261,5.94572308 6.04853261,5.80209231 C6.08222826,3.41723077 8.94853261,1.48393846 12.4670109,1.48393846 C15.9322283,1.48393846 18.7653804,3.35963077 18.8811413,5.69538462 C18.9414674,5.87113846 18.9055978,6.05796923 18.7642935,6.21673846 L14.4007065,11.0824615 L13.162663,9.71076923 L16.7724457,5.68726154 C16.65125,4.14498462 14.7664674,2.91544615 12.4670109,2.91544615 C10.1827717,2.91544615 8.30777174,4.12763077 8.16429348,5.65550769 L22.975163,21.4257231 L20.0958152,22.6157538 Z M4.6588587,22.5264 L2.13983696,21.4870154 L10.5115761,12.6398769 L11.7784239,14.0628923 L4.6588587,22.5264 Z M24.5121196,20.7393231 L15.8914674,11.8316308 L20.3354891,6.86584615 C20.68875,6.4704 20.8191848,6.01033846 20.71375,5.55323077 C20.48875,2.56246154 16.8936413,0.234830769 12.4670109,0.234830769 C7.96918478,0.234830769 4.27353261,2.71273846 4.20994565,5.76443077 C4.18657609,6.15249231 4.33059783,6.53169231 4.62788043,6.86510769 L9.08059783,11.8393846 L0.592554348,20.8113231 C0.324619565,21.0948923 0.236032609,21.4401231 0.347445652,21.7683692 C0.458858696,22.0966154 0.761576087,22.3798154 1.18494565,22.5552 L3.70451087,23.5942154 C3.99472826,23.7142154 4.32516304,23.7755077 4.6588587,23.7755077 C4.81320652,23.7755077 4.96755435,23.7622154 5.11918478,23.7356308 C5.59907609,23.6521846 6.00940217,23.4391385 6.25505435,23.1463385 L12.4528804,15.7872 L18.4849457,23.2194462 C18.727337,23.5170462 19.1382065,23.7356308 19.6229891,23.8231385 C19.7784239,23.8512 19.937663,23.8656 20.0958152,23.8656 C20.4300543,23.8656 20.7610326,23.8035692 21.0517935,23.6832 L23.9305978,22.4931692 C24.3577717,22.3170462 24.6599457,22.0308923 24.7691848,21.7000615 C24.8795109,21.3696 24.7860326,21.0228923 24.5121196,20.7393231 Z"></path>
                </g>
            </g>
        </g>
    </g>
</svg>