<?xml version="1.0" encoding="UTF-8"?>
<svg width="25px" height="24px" viewBox="0 0 25 24" version="1.1" xmlns="http://www.w3.org/2000/svg" xmlns:xlink="http://www.w3.org/1999/xlink">
    <!-- Generator: Sketch 49.3 (51167) - http://www.bohemiancoding.com/sketch -->
    <title>Icon_31_2</title>
    <desc>Created with Sketch.</desc>
    <defs></defs>
    <g id="Page-1" stroke="none" stroke-width="1" fill="none" fill-rule="evenodd">
        <g id="Homepage" transform="translate(-933.000000, -2287.000000)" fill="#347BD9">
            <g id="Products" transform="translate(0.000000, 1763.000000)">
                <g id="Fill-330" transform="translate(933.000000, 524.000000)">
                    <path d="M21.8768333,22.5789415 C20.9735,22.5789415 20.2389167,21.9276185 20.2389167,21.1278646 C20.2389167,20.5489108 20.6264167,20.0519262 21.181,19.8189415 L21.181,21.1278646 C21.181,21.4682954 21.49225,21.7437415 21.8768333,21.7437415 C22.261,21.7437415 22.57225,21.4682954 22.57225,21.1278646 L22.57225,19.8189415 C23.1268333,20.0511877 23.5143333,20.5489108 23.5143333,21.1278646 C23.5143333,21.9276185 22.77975,22.5789415 21.8768333,22.5789415 Z M16.4835,12.77328 C16.2935,12.4287877 16.07225,12.1005415 15.8280833,11.7874338 L19.8476667,11.7874338 C20.3343333,11.7874338 20.6805833,11.87568 20.8764167,12.0499569 C21.0676667,12.2201723 21.1401667,12.4908185 21.1664167,12.77328 L16.4835,12.77328 Z M8.76766667,22.4707569 C4.801,22.4707569 1.57308333,19.6106954 1.57308333,16.09488 C1.57308333,12.5801723 4.801,9.72011077 8.76766667,9.72011077 C12.73475,9.72011077 15.9618333,12.5801723 15.9618333,16.09488 C15.9618333,19.6106954 12.73475,22.4707569 8.76766667,22.4707569 Z M9.46308333,6.30251077 L14.6405833,6.30251077 C15.2918333,6.30251077 15.76475,6.48638769 15.9130833,7.28909538 L9.46308333,7.28909538 L9.46308333,6.30251077 Z M22.57225,18.5181415 L22.57225,13.3898954 L22.57225,13.2968492 C22.57475,12.7437415 22.5789167,11.8177108 21.8618333,11.1804185 C21.3955833,10.7650338 20.7176667,10.5553108 19.8476667,10.5553108 L14.6335,10.5553108 C13.2693333,9.42140308 11.4918333,8.67444923 9.52266667,8.52158769 L16.6576667,8.52158769 C16.6593333,8.52084923 16.6614167,8.52084923 16.6626667,8.52158769 C17.0468333,8.52158769 17.3580833,8.24540308 17.3580833,7.90497231 C17.3580833,7.87691077 17.356,7.84921846 17.35225,7.82189538 C17.31475,5.43001846 15.64225,5.07001846 14.6405833,5.07001846 L9.2985,5.07001846 L7.92891667,0.63408 C7.84641667,0.366756923 7.57183333,0.180664615 7.25808333,0.180664615 L4.5335,0.180664615 C4.14933333,0.180664615 3.83766667,0.456849231 3.83766667,0.79728 C3.83766667,1.13771077 4.14933333,1.41315692 4.5335,1.41315692 L6.72766667,1.41315692 L8.07183333,5.76823385 L8.07183333,7.90497231 L8.07183333,8.51863385 C3.66308333,8.83432615 0.182666667,12.1086646 0.182666667,16.09488 C0.182666667,20.29008 4.03391667,23.7032492 8.76766667,23.7032492 C13.501,23.7032492 17.3530833,20.29008 17.3530833,16.09488 C17.3530833,15.3704492 17.2351667,14.6700185 17.0205833,14.0057723 L21.181,14.0057723 L21.181,18.5181415 C19.8455833,18.7980185 18.8485,19.8602954 18.8485,21.1278646 C18.8485,22.6077415 20.2064167,23.8114338 21.8768333,23.8114338 C23.5468333,23.8114338 24.9051667,22.6077415 24.9051667,21.1278646 C24.9051667,19.8602954 23.90725,18.7980185 22.57225,18.5181415 Z"></path>
                    <path d="M12.90425,19.2385477 L12.3688333,18.7640862 C12.2055,18.6189785 11.9413333,18.6189785 11.7788333,18.7640862 C11.6155,18.9084554 11.6155,19.1418092 11.7788333,19.2869169 L12.31425,19.7613785 C11.3596667,20.4876554 10.12175,20.9296246 8.76758333,20.9296246 C7.41341667,20.9296246 6.1755,20.4876554 5.22091667,19.76064 L5.75591667,19.2869169 C5.91883333,19.1418092 5.91883333,18.9084554 5.75591667,18.7640862 C5.59258333,18.6189785 5.32883333,18.6189785 5.16591667,18.7640862 L4.63091667,19.2378092 C3.81091667,18.3919015 3.31216667,17.2949169 3.31216667,16.0949169 C3.31216667,14.8949169 3.81091667,13.7983015 4.63091667,12.9523938 L5.16591667,13.4268554 C5.24716667,13.4988554 5.35425,13.53504 5.46091667,13.53504 C5.56758333,13.53504 5.67425,13.4988554 5.75591667,13.4268554 C5.91883333,13.2824862 5.91883333,13.0480246 5.75591667,12.9040246 L5.22091667,12.4295631 C6.1755,11.7032862 7.41341667,11.2605785 8.76758333,11.2605785 C10.12175,11.2605785 11.3596667,11.7025477 12.31425,12.4295631 L11.7788333,12.9040246 C11.6155,13.0480246 11.6155,13.2824862 11.7788333,13.4268554 C11.8600833,13.4988554 11.9671667,13.53504 12.0738333,13.53504 C12.1805,13.53504 12.2875833,13.4988554 12.3688333,13.4268554 L12.90425,12.9523938 C13.72425,13.7983015 14.223,14.8949169 14.223,16.0949169 C14.223,17.2949169 13.72425,18.39264 12.90425,19.2385477 M8.76758333,10.5213785 C5.29925,10.5213785 2.47758333,13.02144 2.47758333,16.0949169 C2.47758333,19.1687631 5.29925,21.6695631 8.76758333,21.6695631 C12.2359167,21.6695631 15.0575833,19.1687631 15.0575833,16.0949169 C15.0575833,13.02144 12.2359167,10.5213785 8.76758333,10.5213785" id="Fill-331"></path>
                    <path d="M8.76770833,18.1229538 C7.50604167,18.1229538 6.479375,17.2135385 6.479375,16.0951385 C6.479375,14.9771077 7.50604167,14.0676923 8.76770833,14.0676923 C10.0289583,14.0676923 11.055625,14.9771077 11.055625,16.0951385 C11.055625,17.2135385 10.0289583,18.1229538 8.76770833,18.1229538 M8.76770833,13.3281231 C7.045625,13.3281231 5.64479167,14.5691077 5.64479167,16.0951385 C5.64479167,17.6211692 7.045625,18.8621538 8.76770833,18.8621538 C10.489375,18.8621538 11.8902083,17.6211692 11.8902083,16.0951385 C11.8902083,14.5691077 10.489375,13.3281231 8.76770833,13.3281231" id="Fill-332"></path>
                </g>
            </g>
        </g>
    </g>
</svg>