<?xml version="1.0" encoding="UTF-8"?>
<svg width="25px" height="24px" viewBox="0 0 25 24" version="1.1" xmlns="http://www.w3.org/2000/svg" xmlns:xlink="http://www.w3.org/1999/xlink">
    <!-- Generator: Sketch 49.3 (51167) - http://www.bohemiancoding.com/sketch -->
    <title>Icon_57_ Copy 2</title>
    <desc>Created with Sketch.</desc>
    <defs></defs>
    <g id="Page-1" stroke="none" stroke-width="1" fill="none" fill-rule="evenodd">
        <g id="Homepage" transform="translate(-214.000000, -2365.000000)" fill="#347BD9">
            <g id="Products" transform="translate(0.000000, 1763.000000)">
                <g id="Fill-106" transform="translate(214.000000, 602.000000)">
                    <path d="M9.8725,18.3648738 C7.54211538,18.3648738 5.64634615,16.5449354 5.64634615,14.3081354 C5.64634615,12.0705969 7.54211538,10.2502892 9.8725,10.2502892 C12.2028846,10.2502892 14.0990385,12.0705969 14.0990385,14.3081354 C14.0990385,16.5449354 12.2028846,18.3648738 9.8725,18.3648738 M23.6182692,0.00192 L14.3986538,0.00192 C13.6886538,0.00192 13.1132692,0.55392 13.1132692,1.23515077 L13.1132692,4.09890462 C13.1132692,4.42604308 13.2486538,4.73988923 13.4898077,4.97139692 C13.7309615,5.20253538 14.0575,5.33213538 14.3986538,5.33213538 L15.4263462,5.33213538 L14.5751923,6.14887385 C13.1413462,5.38345846 11.5348077,4.98321231 9.8725,4.98321231 C4.51634615,4.98321231 0.158653846,9.16622769 0.158653846,14.3081354 C0.158653846,19.4496738 4.51634615,23.6326892 9.8725,23.6326892 C15.2286538,23.6326892 19.5863462,19.4496738 19.5863462,14.3081354 C19.5863462,12.7765662 19.2009615,11.2900431 18.4640385,9.95416615 L19.3528846,9.10087385 L19.3528846,10.0881969 C19.3528846,10.7697969 19.9282692,11.3217969 20.6375,11.3217969 L23.6205769,11.3217969 C24.3301923,11.3217969 24.9055769,10.7697969 24.9055769,10.0881969 L24.9055769,1.23736615 C24.9055769,0.800196923 24.6682692,0.415827692 24.3105769,0.196873846 C24.1109615,0.0735507692 23.8728846,0.00192 23.6182692,0.00192 M9.8725,19.5984738 C12.9159615,19.5984738 15.3836538,17.2305969 15.3836538,14.3081354 C15.3836538,11.3856738 12.9159615,9.01705846 9.8725,9.01705846 C6.82865385,9.01705846 4.36096154,11.3856738 4.36096154,14.3081354 C4.36096154,17.2305969 6.82865385,19.5984738 9.8725,19.5984738 M23.6182692,1.23515077 L23.6182692,1.23736615 L23.6205769,1.23736615 L23.6205769,10.0881969 L20.6375,10.0881969 L20.6375,6.12339692 L16.8459615,9.76290462 C17.7640385,11.0581662 18.3009615,12.6225969 18.3009615,14.3081354 C18.3009615,18.7761969 14.5271154,22.3990892 9.8725,22.3990892 C5.21711538,22.3990892 1.44403846,18.7761969 1.44403846,14.3081354 C1.44403846,9.83933538 5.21711538,6.21644308 9.8725,6.21644308 C11.6940385,6.21644308 13.3801923,6.77287385 14.7586538,7.71736615 L18.5278846,4.09853538 L14.3986538,4.09890462 L14.3986538,1.23515077 L23.6182692,1.23515077"></path>
                </g>
            </g>
        </g>
    </g>
</svg>