<?xml version="1.0" encoding="UTF-8"?>
<svg width="25px" height="24px" viewBox="0 0 25 24" version="1.1" xmlns="http://www.w3.org/2000/svg" xmlns:xlink="http://www.w3.org/1999/xlink">
    <!-- Generator: Sketch 49.3 (51167) - http://www.bohemiancoding.com/sketch -->
    <title>Icon_31_</title>
    <desc>Created with Sketch.</desc>
    <defs></defs>
    <g id="Page-1" stroke="none" stroke-width="1" fill="none" fill-rule="evenodd">
        <g id="Homepage" transform="translate(-573.000000, -2130.000000)" fill="#347BD9">
            <g id="Products" transform="translate(0.000000, 1763.000000)">
                <g id="Fill-95" transform="translate(573.000000, 367.000000)">
                    <path d="M14.7181154,21.2552862 C14.4538846,20.8919631 14.2242692,20.5267938 14.0269615,20.1594092 L20.8915769,13.5701169 C21.2750385,13.7580554 21.6561923,13.9777477 22.0346538,14.23104 L14.7181154,21.2552862 Z M9.98196154,2.73651692 C10.2458077,3.09984 10.4754231,3.46537846 10.6719615,3.83276308 L3.81157692,10.4191015 C3.42773077,10.2315323 3.04580769,10.01184 2.66696154,9.75891692 L9.98196154,2.73651692 Z M11.8269615,9.41442462 C11.8192692,10.0746092 11.7838846,10.7410708 11.7423462,11.4145477 C11.0373462,11.4577477 10.3396538,11.4946708 9.64888462,11.5057477 L11.8269615,9.41442462 Z M4.55888462,10.74624 L11.0146538,4.54870154 C11.2065769,4.99842462 11.3569615,5.45073231 11.4723462,5.90710154 L5.97811538,11.1811938 C5.50157692,11.0715323 5.0285,10.9290092 4.55888462,10.74624 Z M6.88773077,11.3528862 L11.6550385,6.77627077 C11.7427308,7.30759385 11.7911923,7.84297846 11.8131154,8.38316308 L8.56926923,11.4972554 C8.00388462,11.4784246 7.44311538,11.4344862 6.88773077,11.3528862 Z M12.8688846,14.5810708 C12.8769615,13.9179323 12.9123462,13.2481477 12.9538846,12.5720862 C13.6619615,12.5281477 14.3631154,12.4912246 15.0573462,12.4801477 L12.8688846,14.5810708 Z M12.8831154,15.6119631 L16.1358077,12.4890092 C16.7008077,12.5082092 17.2611923,12.5525169 17.8169615,12.6344862 L13.0427308,17.2181169 C12.9542692,16.6871631 12.9058077,16.1517785 12.8831154,15.6119631 Z M13.2254231,18.0872862 L18.7258077,12.8065477 C19.2019615,12.9162092 19.6750385,13.0591015 20.1442692,13.24224 L13.6838846,19.4442092 C13.4915769,18.9952246 13.3415769,18.5425477 13.2254231,18.0872862 Z M24.5085,14.6253785 C20.8108077,11.0755938 16.8704231,11.1021785 13.0319615,11.3336862 C13.2535,7.66796308 13.2611923,3.90550154 9.56580769,0.357932308 C9.31503846,0.117563077 8.90926923,0.117563077 8.65888462,0.357932308 C8.4085,0.598670769 8.4085,0.988209231 8.65888462,1.22894769 C8.9735,1.53097846 9.25773077,1.83485538 9.51503846,2.14020923 L2.04503846,9.31140923 C1.72657692,9.06439385 1.40965385,8.79227077 1.09465385,8.49024 C0.844269231,8.24950154 0.438115385,8.24950154 0.187730769,8.49024 C-0.0626538462,8.73060923 -0.0626538462,9.12051692 0.187730769,9.36051692 C3.88542308,12.9103015 7.82619231,12.8840862 11.6642692,12.6529477 C11.4427308,16.3186708 11.4354231,20.0807631 15.1304231,23.6283323 C15.2554231,23.7483323 15.4196538,23.8085169 15.5838846,23.8085169 C15.7481154,23.8085169 15.9119615,23.7483323 16.0373462,23.6283323 C16.2877308,23.3875938 16.2877308,22.9980554 16.0373462,22.7576862 C15.7238846,22.4571323 15.4419615,22.1547323 15.1854231,21.8508554 L22.6569615,14.6785477 C22.9735,14.9244554 23.2881154,15.1954708 23.6015769,15.4960246 C23.7269615,15.6163938 23.8908077,15.6765785 24.0546538,15.6765785 C24.2188846,15.6765785 24.3831154,15.6163938 24.5085,15.4960246 C24.7585,15.2556554 24.7585,14.8657477 24.5085,14.6253785 Z"></path>
                </g>
            </g>
        </g>
    </g>
</svg>