<?xml version="1.0" encoding="UTF-8"?>
<svg width="25px" height="24px" viewBox="0 0 25 24" version="1.1" xmlns="http://www.w3.org/2000/svg" xmlns:xlink="http://www.w3.org/1999/xlink">
    <!-- Generator: Sketch 49.3 (51167) - http://www.bohemiancoding.com/sketch -->
    <title>Icon_57_1</title>
    <desc>Created with Sketch.</desc>
    <defs></defs>
    <g id="Page-1" stroke="none" stroke-width="1" fill="none" fill-rule="evenodd">
        <g id="Homepage" transform="translate(-573.000000, -2207.000000)" fill="#347BD9">
            <g id="Products" transform="translate(0.000000, 1763.000000)">
                <g id="Fill-98" transform="translate(573.000000, 444.000000)">
                    <path d="M21.3337692,22.5710031 C20.2218462,22.5710031 19.3183846,21.7029415 19.3183846,20.6362338 C19.3183846,19.5691569 20.2218462,18.7014646 21.3337692,18.7014646 C22.4449231,18.7014646 23.3483846,19.5691569 23.3483846,20.6362338 C23.3483846,21.7029415 22.4449231,22.5710031 21.3337692,22.5710031 M12.3449231,15.0745108 C10.5591538,15.0745108 9.10723077,13.6806646 9.10723077,11.9666954 C9.10723077,10.2530954 10.5591538,8.85851077 12.3449231,8.85851077 C14.1299231,8.85851077 15.5826154,10.2530954 15.5826154,11.9666954 C15.5826154,13.6806646 14.1299231,15.0745108 12.3449231,15.0745108 M3.32146154,21.4910031 C2.21030769,21.4910031 1.30684615,20.6233108 1.30684615,19.5566031 C1.30684615,18.4895262 2.21030769,17.6218338 3.32146154,17.6218338 C4.43338462,17.6218338 5.33684615,18.4895262 5.33684615,19.5566031 C5.33684615,20.6233108 4.43338462,21.4910031 3.32146154,21.4910031 M4.923,5.79094154 C4.923,5.27475692 5.36030769,4.85531077 5.898,4.85531077 C6.43530769,4.85531077 6.87223077,5.27475692 6.87223077,5.79094154 C6.87223077,6.30675692 6.43530769,6.72657231 5.898,6.72657231 C5.36030769,6.72657231 4.923,6.30675692 4.923,5.79094154 M17.4545385,1.41518769 C18.5656923,1.41518769 19.4691538,2.28324923 19.4691538,3.34958769 C19.4691538,4.41666462 18.5656923,5.28472615 17.4545385,5.28472615 C16.3426154,5.28472615 15.4391538,4.41666462 15.4391538,3.34958769 C15.4391538,2.28324923 16.3426154,1.41518769 17.4545385,1.41518769 M21.3337692,17.4663877 C20.6576154,17.4663877 20.0295385,17.6628185 19.5060769,17.9984492 L15.9553077,14.5734646 C16.5260769,13.84608 16.8687692,12.9455262 16.8687692,11.9666954 C16.8687692,10.5746954 16.1806923,9.33666462 15.1160769,8.54171077 L16.4126154,6.35549538 C16.7403077,6.46035692 17.0903077,6.51943385 17.4545385,6.51943385 C19.2745385,6.51943385 20.7560769,5.09789538 20.7560769,3.34958769 C20.7560769,1.60201846 19.2745385,0.180110769 17.4545385,0.180110769 C15.6337692,0.180110769 14.1522308,1.60201846 14.1522308,3.34958769 C14.1522308,4.30515692 14.5968462,5.16103385 15.2956923,5.74294154 L13.9991538,7.92878769 C13.4860769,7.73420308 12.9291538,7.62380308 12.3449231,7.62380308 C11.3218462,7.62380308 10.3799231,7.95537231 9.62184615,8.50700308 L7.88261538,6.82921846 C8.05838462,6.52054154 8.15915385,6.16681846 8.15915385,5.79094154 C8.15915385,4.59389538 7.14492308,3.62023385 5.898,3.62023385 C4.65107692,3.62023385 3.63684615,4.59389538 3.63684615,5.79094154 C3.63684615,6.98761846 4.65107692,7.96164923 5.898,7.96164923 C6.28569231,7.96164923 6.65146154,7.86712615 6.97069231,7.70134154 L8.71569231,9.38429538 C8.15607692,10.1072492 7.82107692,10.9989415 7.82107692,11.9666954 C7.82107692,12.8310646 8.08838462,13.6356185 8.54376923,14.3131569 L5.29184615,17.01888 C4.74107692,16.6238031 4.06069231,16.3867569 3.32146154,16.3867569 C1.50107692,16.3867569 0.0199230769,17.8086646 0.0199230769,19.5566031 C0.0199230769,21.3041723 1.50107692,22.72608 3.32146154,22.72608 C5.14223077,22.72608 6.62376923,21.3041723 6.62376923,19.5566031 C6.62376923,18.9639877 6.45030769,18.41088 6.15415385,17.9360492 L9.38723077,15.2454646 C10.1814615,15.9063877 11.2137692,16.3095877 12.3449231,16.3095877 C13.3568462,16.3095877 14.2891538,15.9850338 15.0433846,15.4441108 L18.5941538,18.8690954 C18.2387692,19.3742031 18.0314615,19.9823262 18.0314615,20.6362338 C18.0314615,22.3838031 19.513,23.80608 21.3337692,23.80608 C23.1537692,23.80608 24.6353077,22.3838031 24.6353077,20.6362338 C24.6353077,18.8882954 23.1537692,17.4663877 21.3337692,17.4663877"></path>
                </g>
            </g>
        </g>
    </g>
</svg>