<?xml version="1.0" encoding="UTF-8"?>
<svg width="21px" height="20px" viewBox="0 0 21 20" version="1.1" xmlns="http://www.w3.org/2000/svg" xmlns:xlink="http://www.w3.org/1999/xlink">
    <!-- Generator: Sketch 49.3 (51167) - http://www.bohemiancoding.com/sketch -->
    <title>instagram</title>
    <desc>Created with Sketch.</desc>
    <defs></defs>
    <g id="Symbols" stroke="none" stroke-width="1" fill="none" fill-rule="evenodd">
        <g id="footer" transform="translate(-1236.947572, -651.995100)" fill="#000000">
            <g id="Group-Copy">
                <g transform="translate(1227.000000, 642.000000)">
                    <g id="instagram">
                        <g id="Shape">
                            <path d="M20.4537525,11.8181818 C22.9689818,11.8181818 23.2703018,11.8276072 24.2646579,11.8747343 C26.8163627,11.9894103 28.0089556,13.2021475 28.1278978,15.7375852 C28.1738887,16.7303961 28.1818182,17.0304386 28.1818182,19.5454545 C28.1818182,22.0651832 28.1723028,22.3620839 28.1263119,23.3548947 C28.0089556,25.8871907 26.8195345,27.1030697 24.263072,27.2193166 C23.2687159,27.2648728 22.9721536,27.2727273 20.4521666,27.2727273 C17.9369374,27.2727273 17.6372032,27.2648728 16.644433,27.2177457 C14.0832128,27.1030697 12.8969635,25.8840489 12.7796073,23.3533238 C12.7367881,22.360513 12.7272727,22.0651832 12.7272727,19.5454545 C12.7272727,17.0288677 12.7367881,16.7303961 12.7811932,15.7360143 C12.8985494,13.2021475 14.0895564,11.9894103 16.6460189,11.8731634 C17.640375,11.8276072 17.9385233,11.8181818 20.4537525,11.8181818 Z M20.4537424,10 C17.8616059,10 17.5371873,10.0111364 16.5189627,10.0572727 C13.0531444,10.2163636 11.1259053,12.1397727 10.9669081,15.6095455 C10.9187271,16.6277273 10.9090909,16.9538636 10.9090909,19.5454545 C10.9090909,22.1386364 10.9203331,22.4631818 10.9669081,23.4829545 C11.1259053,26.9479545 13.0483263,28.8761364 16.5189627,29.0336364 C17.5371873,29.0797727 17.8616059,29.0909091 20.4537424,29.0909091 C23.0490911,29.0909091 23.3719036,29.0797727 24.3917343,29.0336364 C27.8543405,28.8745455 29.7831856,26.9511364 29.9437889,23.4829545 C29.9871517,22.4631818 30,22.1370455 30,19.5454545 C30,16.9522727 29.9871517,16.6293182 29.9437889,15.6095455 C29.7863977,12.1477273 27.8607646,10.2163636 24.3917343,10.0572727 C23.3719036,10.0127273 23.0490911,10 20.4537424,10 Z M20.4553647,14.5454545 C17.696066,14.5454545 15.4545455,16.7846238 15.4545455,19.5446433 C15.4545455,22.3062853 17.6944275,24.5454545 20.4553647,24.5454545 C23.2179405,24.5454545 25.4545455,22.3062853 25.4545455,19.5446433 C25.4545455,16.7830012 23.2179405,14.5454545 20.4553647,14.5454545 Z M20.4521429,22.7272727 C18.6874254,22.7177273 17.2647323,21.2954545 17.2727611,19.5454545 C17.2727611,17.7890909 18.6954542,16.3636364 20.4521429,16.3636364 C22.2152547,16.37 23.642765,17.7938636 23.636342,19.5422727 C23.636342,19.5422727 23.636342,19.5438636 23.636342,19.5454545 C23.636342,21.3034091 22.2088317,22.7272727 20.4521429,22.7272727 Z M25.9090643,13.6363636 C25.1555507,13.6401515 24.5416474,14.25 24.5454723,15 C24.5454723,15.7518939 25.1574631,16.3636364 25.9090643,16.3636364 C26.6683154,16.3617424 27.2764813,15.75 27.2726563,15.0018939 C27.2726563,15.0018939 27.2726563,15.0018939 27.2726563,15 C27.2803062,14.25 26.6683154,13.6401515 25.9128893,13.6363636 L25.9090643,13.6363636 Z" fill-rule="nonzero"></path>
                        </g>
                    </g>
                </g>
            </g>
        </g>
    </g>
</svg>