<?xml version="1.0" encoding="UTF-8"?>
<svg width="90px" height="90px" viewBox="0 0 90 90" version="1.1" xmlns="http://www.w3.org/2000/svg" xmlns:xlink="http://www.w3.org/1999/xlink">
    <!-- Generator: Sketch 49.3 (51167) - http://www.bohemiancoding.com/sketch -->
    <title>medical</title>
    <desc>Created with Sketch.</desc>
    <defs></defs>
    <g id="Page-1" stroke="none" stroke-width="1" fill="none" fill-rule="evenodd">
        <g id="What-we-do" transform="translate(-248.000000, -1506.000000)">
            <g id="Feature" transform="translate(0.000000, 1315.000000)">
                <g id="Group-3" transform="translate(186.000000, 126.000000)">
                    <g id="medical" transform="translate(62.000000, 65.000000)">
                        <path d="M85,45.0006593 C85,67.0910874 67.0921109,85 45,85 C22.9078891,85 5,67.0910874 5,45.0006593 C5,22.9089126 22.9078891,5 45,5 C67.0921109,5 85,22.9089126 85,45.0006593" id="Fill-1" fill="#0070B6"></path>
                        <path d="M45,2 C20.699625,2 1,21.4744063 1,45.5 C1,69.5242344 20.699625,89 45,89 L45,2 Z" id="Fill-3" fill="#FFFFC3"></path>
                        <path d="M81,45 C81,69.8526562 65.553114,90 46.5,90 C27.4454899,90 12,69.8526562 12,45 C12,20.1459375 27.4454899,0 46.5,0 C65.553114,0 81,20.1459375 81,45" id="Fill-5" fill="#0C225F"></path>
                        <path d="M37.7328622,68 C36.9526502,68 36.3194346,67.3681591 36.3194346,66.5864856 L36.3194346,53.6810989 L23.4134276,53.6810989 C22.6318021,53.6810989 22,53.0478444 22,52.2675844 L22,37.7324156 C22,36.9521556 22.6318021,36.3189011 23.4134276,36.3189011 L36.3194346,36.3189011 L36.3194346,23.4135144 C36.3194346,22.6318409 36.9526502,22 37.7328622,22 L52.2699647,22 C53.0515901,22 53.6833922,22.6318409 53.6833922,23.4135144 L53.6833922,36.3189011 L66.5865724,36.3189011 C67.3681979,36.3189011 68,36.9521556 68,37.7324156 L68,52.2675844 C68,53.0478444 67.3681979,53.6810989 66.5865724,53.6810989 L53.6833922,53.6810989 L53.6833922,66.5864856 C53.6833922,67.3681591 53.0515901,68 52.2699647,68 L37.7328622,68 Z" id="Fill-7" fill="#85BAFF"></path>
                        <path d="M45,85.3115625 C22.7714062,85.3115625 4.68703125,67.2285938 4.68703125,45 C4.68703125,22.77 22.7714062,4.68703125 45,4.68703125 C67.2285937,4.68703125 85.3129687,22.77 85.3129687,45 C85.3129687,67.2285938 67.2285937,85.3115625 45,85.3115625 M45,0 C20.1473437,0 0,20.1459375 0,45 C0,69.8526562 20.1473437,90 45,90 C69.8526562,90 90,69.8526562 90,45 C90,20.1459375 69.8526562,0 45,0" id="Fill-9" fill="#0C225F"></path>
                        <path d="M67.1631206,52.7933301 L52.7957447,52.7933301 L52.7957447,67.1629563 L38.2070922,67.1629563 L38.2070922,52.7933301 L23.8368794,52.7933301 L23.8368794,38.2066699 L38.2070922,38.2066699 L38.2070922,23.8370437 L52.7957447,23.8370437 L52.7957447,38.2066699 L67.1631206,38.2066699 L67.1631206,52.7933301 Z M67.1631206,35.3696263 L55.6326241,35.3696263 L55.6326241,23.8370437 C55.6326241,22.269577 54.3617021,21 52.7957447,21 L38.2070922,21 C36.6411348,21 35.3702128,22.269577 35.3702128,23.8370437 L35.3702128,35.3696263 L23.8368794,35.3696263 C22.2695035,35.3696263 21,36.6392033 21,38.2066699 L21,52.7933301 C21,54.3607967 22.2695035,55.6303737 23.8368794,55.6303737 L35.3702128,55.6303737 L35.3702128,67.1629563 C35.3702128,68.7290044 36.6411348,70 38.2070922,70 L52.7957447,70 C54.3617021,70 55.6326241,68.7290044 55.6326241,67.1629563 L55.6326241,55.6303737 L67.1631206,55.6303737 C68.729078,55.6303737 70,54.3607967 70,52.7933301 L70,38.2066699 C70,36.6392033 68.729078,35.3696263 67.1631206,35.3696263 Z" id="Fill-11" fill="#04164A"></path>
                    </g>
                </g>
            </g>
        </g>
    </g>
</svg>