<?xml version="1.0" encoding="UTF-8"?>
<svg width="16px" height="20px" viewBox="0 0 16 20" version="1.1" xmlns="http://www.w3.org/2000/svg" xmlns:xlink="http://www.w3.org/1999/xlink">
    <!-- Generator: Sketch 49.3 (51167) - http://www.bohemiancoding.com/sketch -->
    <title>refresh</title>
    <desc>Created with Sketch.</desc>
    <defs></defs>
    <g id="Page-1" stroke="none" stroke-width="1" fill="none" fill-rule="evenodd">
        <g id="Products" transform="translate(-1350.000000, -681.000000)" fill="#F7F7F7">
            <g id="Search" transform="translate(-21.000000, 489.000000)">
                <g id="Group-10-Copy" transform="translate(1228.000000, 176.000000)">
                    <g id="refresh" transform="translate(143.000000, 16.000000)">
                        <g id="Fill-1">
                            <path d="M0.052496732,10.7005089 C-0.0730980392,9.64193384 0.0314771242,8.62015267 0.315973856,7.67552163 C1.26122876,4.53659033 4.22713725,2.22824427 7.74488889,2.18748092 L7.74488889,0.135725191 C7.74488889,0.0216284987 7.89134641,-0.039389313 7.98755556,0.0297709924 L12.3253856,3.13211196 C12.3964444,3.18498728 12.3964444,3.29094148 12.3253856,3.33969466 L7.99184314,6.44198473 C7.89134641,6.51119593 7.74917647,6.45017812 7.74917647,6.3362341 L7.74917647,4.28829517 C5.43586928,4.3248855 3.46159477,5.71323155 2.61233987,7.67552163 C2.29024837,8.41659033 2.12726797,9.23480916 2.17317647,10.0939949 C2.23592157,11.2746056 2.69176471,12.3616285 3.41134641,13.2410687 C3.79618301,13.7092112 3.70426144,14.3930789 3.20627451,14.7473282 C2.73364706,15.0852417 2.07273203,14.9916031 1.70896732,14.5437659 C0.817830065,13.460916 0.223843137,12.1417303 0.052496732,10.7005089 Z M12.576366,6.75949109 C13.3000261,7.63496183 13.7559216,8.72590331 13.8145359,9.90671756 C13.8604967,10.7697201 13.6932288,11.5881425 13.3752157,12.3250382 C12.5261176,14.2873282 10.5516863,15.6796438 8.23853595,15.7122646 L8.23853595,13.6644784 C8.23853595,13.5503817 8.09213072,13.4893639 7.99592157,13.5585242 L3.6580915,16.6608651 C3.58703268,16.7137405 3.58703268,16.8196947 3.6580915,16.8683969 L7.99184314,19.9707379 C8.09213072,20.0399491 8.23424837,19.9788804 8.23424837,19.8649873 L8.23424837,17.8130789 C11.7522614,17.776285 14.7221961,15.4679389 15.6633725,12.3250382 C15.9479216,11.3804071 16.0482092,10.3585751 15.926902,9.30005089 C15.7595817,7.85877863 15.1656471,6.53979644 14.274719,5.45679389 C13.9064575,5.00890585 13.2497778,4.91526718 12.7771503,5.25323155 C12.2835033,5.60748092 12.1915817,6.2913486 12.576366,6.75949109 Z"></path>
                        </g>
                    </g>
                </g>
            </g>
        </g>
    </g>
</svg>