<?xml version="1.0" encoding="UTF-8"?>
<svg width="15px" height="12px" viewBox="0 0 15 12" version="1.1" xmlns="http://www.w3.org/2000/svg" xmlns:xlink="http://www.w3.org/1999/xlink">
    <!-- Generator: Sketch 49.3 (51167) - http://www.bohemiancoding.com/sketch -->
    <title>tick</title>
    <desc>Created with Sketch.</desc>
    <defs></defs>
    <g id="Page-1" stroke="none" stroke-width="1" fill="none" fill-rule="evenodd">
        <g id="Products" transform="translate(-194.000000, -659.000000)" fill="#FFFFFF" fill-rule="nonzero">
            <g id="Search" transform="translate(-21.000000, 489.000000)">
                <path d="M215.171643,176.286107 C215.056253,176.171814 215,175.998232 215,175.883939 C215,175.769646 215.056253,175.599636 215.171643,175.485343 L215.980095,174.684578 C216.211597,174.455278 216.557767,174.455278 216.788548,174.684578 L216.845521,174.743154 L220.020193,178.113364 C220.135583,178.228371 220.307226,178.228371 220.423338,178.113364 L228.153036,170.169296 L228.212174,170.169296 C228.443675,169.943568 228.789846,169.943568 229.020626,170.169296 L229.826915,170.970061 C230.057695,171.199361 230.057695,171.542239 229.826915,171.770825 L220.597865,181.258561 C220.482475,181.372854 220.366364,181.428571 220.191836,181.428571 C220.020193,181.428571 219.904803,181.372854 219.789413,181.258561 L215.287033,176.456118 L215.171643,176.286107 Z" id="tick"></path>
            </g>
        </g>
    </g>
</svg>