<?xml version="1.0" encoding="UTF-8"?>
<svg width="22px" height="19px" viewBox="0 0 22 19" version="1.1" xmlns="http://www.w3.org/2000/svg" xmlns:xlink="http://www.w3.org/1999/xlink">
    <!-- Generator: Sketch 49.3 (51167) - http://www.bohemiancoding.com/sketch -->
    <title>twitter3</title>
    <desc>Created with Sketch.</desc>
    <defs></defs>
    <g id="Page-1" stroke="none" stroke-width="1" fill="none" fill-rule="evenodd">
        <g id="Single-Article" transform="translate(-1319.000000, -341.000000)" fill="#00ACED">
            <g id="Newsletter" transform="translate(1024.000000, 309.000000)">
                <g id="Group-2">
                    <g id="Group-Copy-3" transform="translate(249.000000, 18.000000)">
                        <g id="twitter" transform="translate(32.000000, 0.000000)">
                            <g id="Shape">
                                <path d="M35.25,16.9923077 C34.4513594,17.320979 33.6527188,17.5839161 32.7209714,17.6496504 C33.6527188,17.1237762 34.3182526,16.2692308 34.6510195,15.2832168 C33.7858255,15.8090909 32.8540781,16.1377622 31.8557774,16.334965 C31.0571368,15.4804196 29.9257292,14.9545455 28.7277683,14.9545455 C26.3318465,14.9545455 24.335245,16.8608392 24.335245,19.293007 C24.335245,19.6216783 24.4017984,19.9503496 24.4683518,20.279021 C20.8079156,20.0818182 17.6133532,18.3727273 15.4170915,15.7433566 C15.0177712,16.4006993 14.818111,17.1237762 14.818111,17.9125874 C14.818111,19.4244755 15.6167516,20.7391608 16.7481592,21.527972 C16.0160719,21.527972 15.3505381,21.3307692 14.7515576,21.0020979 C14.7515576,21.0020979 14.7515576,21.0678322 14.7515576,21.0678322 C14.7515576,23.1713287 16.2822855,24.8804196 18.278887,25.2748252 C17.8795667,25.3405595 17.5467998,25.4062937 17.1474795,25.4062937 C16.8812659,25.4062937 16.6150524,25.4062937 16.3488389,25.3405595 C16.8812659,27.0496504 18.5451005,28.2986014 20.4085953,28.3643357 C18.9444208,29.5475525 17.0143727,30.2048951 14.9512178,30.2048951 C14.6184509,30.2048951 14.2191306,30.2048951 13.8863636,30.1391608 C15.8829652,31.3223776 18.2123336,32.0454545 20.6748088,32.0454545 C28.7277683,32.0454545 33.1202917,25.4720279 33.1202917,19.7531469 C33.1202917,19.5559441 33.1202917,19.3587413 33.1202917,19.2272727 C33.9189323,18.5699301 34.6510195,17.8468531 35.25,16.9923077 Z" fill-rule="nonzero"></path>
                            </g>
                        </g>
                    </g>
                </g>
            </g>
        </g>
    </g>
</svg>