<?xml version="1.0" encoding="UTF-8"?>
<svg width="18px" height="16px" viewBox="0 0 18 16" version="1.1" xmlns="http://www.w3.org/2000/svg" xmlns:xlink="http://www.w3.org/1999/xlink">
    <!-- Generator: Sketch 49.3 (51167) - http://www.bohemiancoding.com/sketch -->
    <title>twitter</title>
    <desc>Created with Sketch.</desc>
    <defs></defs>
    <g id="Symbols" stroke="none" stroke-width="1" fill="none" fill-rule="evenodd">
        <g id="footer" transform="translate(-1339.947572, -653.995100)" fill="#00ACED">
            <g id="Group-Copy">
                <g transform="translate(1227.000000, 642.000000)">
                    <g id="twitter" transform="translate(101.000000, 0.000000)">
                        <g id="Shape">
                            <path d="M30,14.4615385 C29.3203059,14.7412587 28.6406117,14.965035 27.8476352,15.020979 C28.6406117,14.5734266 29.2070235,13.8461538 29.4902294,13.006993 C28.7538941,13.4545455 27.9609176,13.7342657 27.1112999,13.9020979 C26.4316058,13.1748252 25.4687057,12.7272727 24.4491646,12.7272727 C22.4100821,12.7272727 20.7108468,14.3496503 20.7108468,16.4195804 C20.7108468,16.6993007 20.767488,16.979021 20.8241292,17.2587413 C17.7088643,17.0909091 14.9900878,15.6363636 13.1209289,13.3986014 C12.7810818,13.958042 12.6111583,14.5734266 12.6111583,15.2447552 C12.6111583,16.5314685 13.2908524,17.6503497 14.2537525,18.3216783 C13.6306995,18.3216783 13.0642877,18.1538462 12.5545171,17.8741259 C12.5545171,17.8741259 12.5545171,17.9300699 12.5545171,17.9300699 C12.5545171,19.7202797 13.8572642,21.1748252 15.5564996,21.5104895 C15.2166525,21.5664336 14.9334466,21.6223777 14.5935995,21.6223777 C14.3670348,21.6223777 14.1404701,21.6223777 13.9139054,21.5664336 C14.3670348,23.020979 15.7830643,24.0839161 17.3690173,24.1398602 C16.1229114,25.1468532 14.4803172,25.7062937 12.7244407,25.7062937 C12.4412348,25.7062937 12.1013877,25.7062937 11.8181818,25.6503496 C13.5174172,26.6573427 15.4998584,27.2727273 17.595582,27.2727273 C24.4491646,27.2727273 28.1874823,21.6783217 28.1874823,16.8111888 C28.1874823,16.6433566 28.1874823,16.4755245 28.1874823,16.3636364 C28.8671764,15.8041958 29.4902294,15.1888112 30,14.4615385 Z" fill-rule="nonzero"></path>
                        </g>
                    </g>
                </g>
            </g>
        </g>
    </g>
</svg>