<?xml version="1.0" encoding="UTF-8"?>
<svg width="21px" height="17px" viewBox="0 0 21 17" version="1.1" xmlns="http://www.w3.org/2000/svg" xmlns:xlink="http://www.w3.org/1999/xlink">
    <!-- Generator: Sketch 49.3 (51167) - http://www.bohemiancoding.com/sketch -->
    <title>youtube</title>
    <desc>Created with Sketch.</desc>
    <defs></defs>
    <g id="Symbols" stroke="none" stroke-width="1" fill="none" fill-rule="evenodd">
        <g id="footer" transform="translate(-1390.947572, -652.995100)" fill="#CC181E">
            <g id="Group-Copy">
                <g transform="translate(1227.000000, 642.000000)">
                    <g id="youtube" transform="translate(154.000000, 0.000000)">
                        <g id="Fill-1">
                            <path d="M18.1824491,22.7272727 L18.1818182,16.3636364 L23.6363636,19.5564251 L18.1824491,22.7272727 Z M30.7000001,15.1518921 C30.7000001,15.1518921 30.495483,13.6378177 29.8688637,12.9710757 C29.0736648,12.0955905 28.1824148,12.0914705 27.7740341,12.0406581 C24.8480682,11.8181818 20.4591194,11.8181818 20.4591194,11.8181818 L20.4499716,11.8181818 C20.4499716,11.8181818 16.0610227,11.8181818 13.1350568,12.0406581 C12.7260227,12.0914705 11.8354261,12.0955905 11.0395739,12.9710757 C10.4129545,13.6378177 10.2090909,15.1518921 10.2090909,15.1518921 C10.2090909,15.1518921 10,16.9303287 10,18.7080787 L10,20.3752772 C10,22.1537138 10.2090909,23.9314637 10.2090909,23.9314637 C10.2090909,23.9314637 10.4129545,25.4455381 11.0395739,26.1122802 C11.8354261,26.9877654 12.8802273,26.9602992 13.3454546,27.0516243 C15.0181818,27.2205414 20.4545455,27.2727273 20.4545455,27.2727273 C20.4545455,27.2727273 24.8480682,27.2658606 27.7740341,27.0433845 C28.1824148,26.9918854 29.0736648,26.9877654 29.8688637,26.1122802 C30.495483,25.4455381 30.7000001,23.9314637 30.7000001,23.9314637 C30.7000001,23.9314637 30.9090909,22.1537138 30.9090909,20.3752772 L30.9090909,18.7080787 C30.9090909,16.9303287 30.7000001,15.1518921 30.7000001,15.1518921 Z" fill-rule="nonzero"></path>
                        </g>
                    </g>
                </g>
            </g>
        </g>
    </g>
</svg>